<svg version="1" xmlns="http://www.w3.org/2000/svg" width="533.333" height="533.333" viewBox="0 0 400.000000 400.000000"><path d="M1.8 30.2c1.9 3.1 22.9 39.4 38.9 67.2 4.1 7 8.2 14.1 9.1 15.7 1 1.5 5.4 9.2 10 17.1 4.5 7.9 12.7 21.9 18.1 31.3 5.5 9.3 13.6 23.3 18 31 4.5 7.7 8.8 15.1 9.6 16.5 7.6 13 50.8 87.7 53.5 92.5 1.2 2.2 2.6 4.4 3 5 .4.5 1.9 3 3.2 5.5 1.4 2.5 7.4 12.8 13.3 23 11.6 19.9 12.5 21.5 17.4 30.2 1.8 3.2 3.7 5.8 4.1 5.8.4 0 4.6-6.6 9.1-14.6 4.6-8 9.2-16 10.3-17.7 2-3.5 35-60.5 43.8-75.7 3-5.2 8.8-15.1 12.8-22 4-6.8 8.1-13.8 9-15.5 1.5-2.6 36-62.2 56.3-97 3.8-6.6 7.8-13.6 8.9-15.5 1.1-1.9 3.7-6.4 5.8-10 2.1-3.6 4.7-8.1 5.8-10 1-1.9 8-13.9 15.4-26.6 7.4-12.8 13.8-23.8 14.2-24.5.6-1.4 3.1-5.6 6.8-11.7l2-3.2-77.3.2-77.3.3-6.4 11c-3.5 6-7.1 12.3-8.1 14-9.4 17.2-30.6 52.5-31.3 52.3-.4-.2-10.8-17.6-23.1-38.8l-22.3-38.5-77.3-.3L-.2 27l2 3.2z"/></svg>